<svg width="960" height="640" viewBox="0 0 960 640" fill="none" xmlns="http://www.w3.org/2000/svg">
  <defs>
    <linearGradient id="bg" x1="106" y1="56" x2="866" y2="592" gradientUnits="userSpaceOnUse">
      <stop stop-color="#10172C" />
      <stop offset="0.48" stop-color="#08101F" />
      <stop offset="1" stop-color="#050A14" />
    </linearGradient>
    <linearGradient id="accent" x1="212" y1="126" x2="766" y2="526" gradientUnits="userSpaceOnUse">
      <stop stop-color="#818CF8" />
      <stop offset="0.38" stop-color="#22D3EE" />
      <stop offset="1" stop-color="#60A5FA" />
    </linearGradient>
  </defs>
  <rect width="960" height="640" rx="40" fill="url(#bg)" />
  <circle cx="790" cy="126" r="112" fill="#22D3EE" fill-opacity="0.12" />
  <circle cx="154" cy="536" r="118" fill="#818CF8" fill-opacity="0.12" />

  <rect x="78" y="78" width="804" height="484" rx="30" fill="#0A1220" stroke="#334155" stroke-width="1.5" />

  <g>
    <rect x="112" y="112" width="318" height="216" rx="24" fill="#0F172A" stroke="#334155" />
    <text x="138" y="150" fill="#67E8F9" font-size="15" font-family="Inter, Arial, sans-serif" letter-spacing="3">CODE INTELLIGENCE</text>
    <rect x="138" y="182" width="266" height="18" rx="9" fill="#16233B" />
    <rect x="138" y="214" width="218" height="14" rx="7" fill="#1E293B" />
    <rect x="138" y="240" width="246" height="14" rx="7" fill="#1E293B" />
    <rect x="138" y="266" width="192" height="14" rx="7" fill="#1E293B" />
    <path d="M156 216H214" stroke="#818CF8" stroke-width="6" stroke-linecap="round" />
    <path d="M156 242H288" stroke="#22D3EE" stroke-width="6" stroke-linecap="round" />
    <path d="M156 268H252" stroke="#38BDF8" stroke-width="6" stroke-linecap="round" />
    <circle cx="330" cy="264" r="24" fill="#15233A" stroke="#475569" />
    <path d="M320 266L328 274L342 254" stroke="#67E8F9" stroke-width="4" stroke-linecap="round" stroke-linejoin="round" />
  </g>

  <g>
    <rect x="470" y="112" width="376" height="126" rx="24" fill="#0F172A" stroke="#334155" />
    <text x="498" y="148" fill="#A5F3FC" font-size="15" font-family="Inter, Arial, sans-serif" letter-spacing="3">PORTFOLIO SIGNALS</text>
    <rect x="498" y="180" width="94" height="30" rx="15" fill="#15233A" stroke="#475569" />
    <text x="521" y="199" fill="#E2E8F0" font-size="14" font-family="Inter, Arial, sans-serif">Health</text>
    <rect x="608" y="180" width="94" height="30" rx="15" fill="#15233A" stroke="#475569" />
    <text x="638" y="199" fill="#E2E8F0" font-size="14" font-family="Inter, Arial, sans-serif">Debt</text>
    <rect x="718" y="180" width="94" height="30" rx="15" fill="#15233A" stroke="#475569" />
    <text x="746" y="199" fill="#E2E8F0" font-size="14" font-family="Inter, Arial, sans-serif">Cloud</text>
  </g>

  <g>
    <rect x="114" y="370" width="352" height="156" rx="24" fill="#0E1729" stroke="#334155" />
    <text x="142" y="408" fill="#67E8F9" font-size="15" font-family="Inter, Arial, sans-serif" letter-spacing="3">REPOSITORY GRAPH</text>
    <path d="M182 466C238 424 282 416 328 436C378 458 410 470 432 472" stroke="url(#accent)" stroke-width="4" stroke-linecap="round" />
    <path d="M182 466C224 488 256 506 312 506C364 506 398 486 432 472" stroke="#22D3EE" stroke-width="3" stroke-linecap="round" stroke-dasharray="8 10" />
    <circle cx="182" cy="466" r="13" fill="#A78BFA" stroke="#0F172A" stroke-width="4" />
    <circle cx="328" cy="436" r="14" fill="#22D3EE" stroke="#0F172A" stroke-width="4" />
    <circle cx="432" cy="472" r="15" fill="#60A5FA" stroke="#0F172A" stroke-width="4" />
    <circle cx="252" cy="500" r="11" fill="#38BDF8" stroke="#0F172A" stroke-width="4" />
    <circle cx="366" cy="504" r="11" fill="#818CF8" stroke="#0F172A" stroke-width="4" />
  </g>

  <g>
    <rect x="506" y="284" width="320" height="242" rx="24" fill="#0B1322" stroke="#334155" />
    <text x="534" y="322" fill="#67E8F9" font-size="15" font-family="Inter, Arial, sans-serif" letter-spacing="3">ANALYSIS STACK</text>
    <rect x="534" y="352" width="264" height="36" rx="18" fill="#132238" stroke="#475569" />
    <text x="566" y="375" fill="#E2E8F0" font-size="15" font-family="Inter, Arial, sans-serif">Architecture layering</text>
    <rect x="534" y="404" width="264" height="36" rx="18" fill="#132238" stroke="#475569" />
    <text x="566" y="427" fill="#E2E8F0" font-size="15" font-family="Inter, Arial, sans-serif">Dependency and CVE review</text>
    <rect x="534" y="456" width="264" height="36" rx="18" fill="#132238" stroke="#475569" />
    <text x="566" y="479" fill="#E2E8F0" font-size="15" font-family="Inter, Arial, sans-serif">Cloud readiness scoring</text>
  </g>

  <path d="M430 220C466 210 490 200 520 184" stroke="#22D3EE" stroke-width="3" stroke-linecap="round" stroke-dasharray="8 10" />
  <path d="M646 238C674 262 698 284 716 320" stroke="#818CF8" stroke-width="3" stroke-linecap="round" stroke-dasharray="8 10" />
</svg>