<svg xmlns="http://www.w3.org/2000/svg" viewBox="0 0 900 440">
  <!-- Background -->
  <rect width="900" height="440" fill="#0a0f1a"/>
  <!-- Subtle grid -->
  <defs>
    <pattern id="g" x="0" y="0" width="36" height="36" patternUnits="userSpaceOnUse">
      <path d="M36 0L0 0 0 36" fill="none" stroke="#1e2a3a" stroke-width="0.8"/>
    </pattern>
  </defs>
  <rect width="900" height="440" fill="url(#g)"/>

  <!-- Header label -->
  <text x="450" y="36" text-anchor="middle" font-family="system-ui,sans-serif" font-size="10" font-weight="600" letter-spacing="3" fill="#4b6a8a">INFRA SCAN · CLOUD READINESS ASSESSMENT</text>

  <!-- ── Left: On-Premises servers ── -->
  <text x="130" y="66" text-anchor="middle" font-family="system-ui,sans-serif" font-size="10" font-weight="500" letter-spacing="2" fill="#475569">ON-PREMISES</text>

  <!-- Server 1 – ready (green) -->
  <rect x="60" y="78" width="138" height="32" rx="6" fill="#111827" stroke="#1d2d3f" stroke-width="1.5"/>
  <rect x="72" y="87" width="10" height="14" rx="3" fill="#2dd4bf" opacity="0.85"/>
  <rect x="90" y="89" width="66" height="4" rx="2" fill="#1e3a4a"/>
  <rect x="90" y="97" width="46" height="4" rx="2" fill="#1e3a4a"/>
  <circle cx="182" cy="94" r="5" fill="#10b981"/>

  <!-- Server 2 – ready (green) -->
  <rect x="60" y="118" width="138" height="32" rx="6" fill="#111827" stroke="#1d2d3f" stroke-width="1.5"/>
  <rect x="72" y="127" width="10" height="14" rx="3" fill="#2dd4bf" opacity="0.85"/>
  <rect x="90" y="129" width="66" height="4" rx="2" fill="#1e3a4a"/>
  <rect x="90" y="137" width="46" height="4" rx="2" fill="#1e3a4a"/>
  <circle cx="182" cy="134" r="5" fill="#10b981"/>

  <!-- Server 3 – partial (amber) -->
  <rect x="60" y="158" width="138" height="32" rx="6" fill="#111827" stroke="#1d2d3f" stroke-width="1.5"/>
  <rect x="72" y="167" width="10" height="14" rx="3" fill="#fbbf24" opacity="0.7"/>
  <rect x="90" y="169" width="66" height="4" rx="2" fill="#1e3a4a"/>
  <rect x="90" y="177" width="46" height="4" rx="2" fill="#1e3a4a"/>
  <circle cx="182" cy="174" r="5" fill="#f59e0b"/>

  <!-- Server 4 – EOS risk (red) -->
  <rect x="60" y="198" width="138" height="32" rx="6" fill="#111827" stroke="#2d1e1e" stroke-width="1.5"/>
  <rect x="72" y="207" width="10" height="14" rx="3" fill="#f87171" opacity="0.7"/>
  <rect x="90" y="209" width="66" height="4" rx="2" fill="#1e3a4a"/>
  <rect x="90" y="217" width="46" height="4" rx="2" fill="#1e3a4a"/>
  <circle cx="182" cy="214" r="5" fill="#ef4444"/>

  <!-- Legend -->
  <circle cx="65" cy="250" r="4" fill="#10b981"/>
  <text x="76" y="254" font-family="system-ui,sans-serif" font-size="10" fill="#64748b">Ready</text>
  <circle cx="120" cy="250" r="4" fill="#f59e0b"/>
  <text x="131" y="254" font-family="system-ui,sans-serif" font-size="10" fill="#64748b">Partial</text>
  <circle cx="178" cy="250" r="4" fill="#ef4444"/>
  <text x="189" y="254" font-family="system-ui,sans-serif" font-size="10" fill="#64748b">EOS Risk</text>

  <!-- ── Migration strategy arrows ── -->
  <!-- Lift & Shift (green) -->
  <path d="M202 94 Q392 76 548 136" stroke="#10b981" stroke-width="2" stroke-dasharray="8 4" fill="none" opacity="0.9"/>
  <polygon points="541,129 554,134 546,145" fill="#10b981" opacity="0.9"/>
  <rect x="308" y="62" width="106" height="22" rx="11" fill="#022c22" stroke="#059669" stroke-width="1"/>
  <text x="361" y="77" text-anchor="middle" font-family="system-ui,sans-serif" font-size="11" font-weight="500" fill="#6ee7b7">Lift &amp; Shift</text>

  <!-- Smart Shift (indigo) -->
  <path d="M202 134 Q392 130 548 154" stroke="#818cf8" stroke-width="2" stroke-dasharray="8 4" fill="none" opacity="0.9"/>
  <polygon points="541,148 554,152 546,162" fill="#818cf8" opacity="0.9"/>
  <rect x="308" y="113" width="106" height="22" rx="11" fill="#1e1b4b" stroke="#6366f1" stroke-width="1"/>
  <text x="361" y="128" text-anchor="middle" font-family="system-ui,sans-serif" font-size="11" font-weight="500" fill="#c7d2fe">Smart Shift</text>

  <!-- PaaS (orange) -->
  <path d="M202 174 Q392 182 548 174" stroke="#fb923c" stroke-width="2" stroke-dasharray="8 4" fill="none" opacity="0.9"/>
  <polygon points="541,167 554,172 546,182" fill="#fb923c" opacity="0.9"/>
  <rect x="308" y="166" width="106" height="22" rx="11" fill="#1c0a03" stroke="#f97316" stroke-width="1"/>
  <text x="361" y="181" text-anchor="middle" font-family="system-ui,sans-serif" font-size="11" font-weight="500" fill="#fdba74">PaaS</text>

  <!-- EOS risk (red dashed) -->
  <path d="M202 214 Q392 218 548 194" stroke="#ef4444" stroke-width="1.5" stroke-dasharray="5 4" fill="none" opacity="0.55"/>

  <!-- ── Right: Azure cloud target ── -->
  <text x="726" y="66" text-anchor="middle" font-family="system-ui,sans-serif" font-size="10" font-weight="500" letter-spacing="2" fill="#475569">CLOUD TARGET</text>

  <!-- Cloud blob -->
  <path d="M618 163 Q616 136 638 128 Q642 106 668 114 Q676 92 704 102 Q716 82 742 94 Q768 78 782 98 Q808 86 814 110 Q836 106 840 132 Q856 136 852 161 Q852 180 832 180 L636 180 Q618 180 618 163Z" fill="#0c2340" stroke="#0ea5e9" stroke-width="1.5"/>
  <text x="730" y="148" text-anchor="middle" font-family="system-ui,sans-serif" font-size="14" font-weight="700" fill="#38bdf8">Azure</text>
  <text x="730" y="166" text-anchor="middle" font-family="system-ui,sans-serif" font-size="10" fill="#7dd3fc">Cloud Target</text>

  <!-- ── Bottom metric cards ── -->
  <!-- Card 1: Cloud Ready -->
  <rect x="55" y="296" width="172" height="106" rx="14" fill="#0d1b2a" stroke="#1d3d55" stroke-width="1"/>
  <text x="75" y="322" font-family="system-ui,sans-serif" font-size="10" fill="#64748b">Cloud Ready</text>
  <text x="75" y="358" font-family="system-ui,sans-serif" font-size="32" font-weight="700" fill="#22d3ee">74%</text>
  <text x="75" y="382" font-family="system-ui,sans-serif" font-size="10" fill="#475569">14 of 19 servers</text>

  <!-- Card 2: Strategy Mix -->
  <rect x="244" y="296" width="180" height="106" rx="14" fill="#0d1b2a" stroke="#1d3d55" stroke-width="1"/>
  <text x="264" y="322" font-family="system-ui,sans-serif" font-size="10" fill="#64748b">Strategy Mix</text>
  <rect x="264" y="334" width="65" height="10" rx="5" fill="#10b981"/>
  <text x="337" y="344" font-family="system-ui,sans-serif" font-size="10" fill="#6ee7b7">L&amp;S 42%</text>
  <rect x="264" y="350" width="46" height="10" rx="5" fill="#818cf8"/>
  <text x="317" y="360" font-family="system-ui,sans-serif" font-size="10" fill="#c7d2fe">Smart 30%</text>
  <rect x="264" y="366" width="43" height="10" rx="5" fill="#fb923c"/>
  <text x="314" y="376" font-family="system-ui,sans-serif" font-size="10" fill="#fed7aa">PaaS 28%</text>

  <!-- Card 3: Potential Savings -->
  <rect x="441" y="296" width="180" height="106" rx="14" fill="#0d1b2a" stroke="#1d3d55" stroke-width="1"/>
  <text x="461" y="322" font-family="system-ui,sans-serif" font-size="10" fill="#64748b">Potential Savings</text>
  <text x="461" y="358" font-family="system-ui,sans-serif" font-size="32" font-weight="700" fill="#818cf8">38%</text>
  <text x="461" y="382" font-family="system-ui,sans-serif" font-size="10" fill="#475569">vs current OnPrem</text>

  <!-- Card 4: EOS Risk -->
  <rect x="638" y="296" width="207" height="106" rx="14" fill="#0d1b2a" stroke="#3d1515" stroke-width="1"/>
  <text x="658" y="322" font-family="system-ui,sans-serif" font-size="10" fill="#64748b">EOS Risk</text>
  <text x="658" y="358" font-family="system-ui,sans-serif" font-size="32" font-weight="700" fill="#f87171">3</text>
  <text x="658" y="382" font-family="system-ui,sans-serif" font-size="10" fill="#475569">workloads end-of-support</text>
</svg>
