<svg width="960" height="640" viewBox="0 0 960 640" fill="none" xmlns="http://www.w3.org/2000/svg">
  <defs>
    <linearGradient id="bg" x1="104" y1="42" x2="842" y2="604" gradientUnits="userSpaceOnUse">
      <stop stop-color="#10192E" />
      <stop offset="0.52" stop-color="#081120" />
      <stop offset="1" stop-color="#060B15" />
    </linearGradient>
    <linearGradient id="card" x1="188" y1="108" x2="744" y2="532" gradientUnits="userSpaceOnUse">
      <stop stop-color="#162440" stop-opacity="0.96" />
      <stop offset="1" stop-color="#0D1628" stop-opacity="0.92" />
    </linearGradient>
    <linearGradient id="accent" x1="257" y1="145" x2="706" y2="514" gradientUnits="userSpaceOnUse">
      <stop stop-color="#818CF8" />
      <stop offset="0.48" stop-color="#22D3EE" />
      <stop offset="1" stop-color="#38BDF8" />
    </linearGradient>
    <linearGradient id="factory" x1="144" y1="428" x2="476" y2="260" gradientUnits="userSpaceOnUse">
      <stop stop-color="#0B1322" />
      <stop offset="1" stop-color="#1E2B44" />
    </linearGradient>
    <filter id="glow" x="0" y="0" width="960" height="640" filterUnits="userSpaceOnUse" color-interpolation-filters="sRGB">
      <feGaussianBlur stdDeviation="18" />
    </filter>
  </defs>
  <rect width="960" height="640" rx="40" fill="url(#bg)" />
  <g opacity="0.22">
    <circle cx="792" cy="118" r="128" fill="#22D3EE" filter="url(#glow)" />
    <circle cx="156" cy="548" r="136" fill="#818CF8" filter="url(#glow)" />
  </g>
  <path d="M72 138H888" stroke="#334155" stroke-width="1.4" stroke-dasharray="7 10" />
  <path d="M72 504H888" stroke="#334155" stroke-width="1.4" stroke-dasharray="7 10" />
  <path d="M186 70V570" stroke="#1E293B" stroke-width="1.2" stroke-dasharray="8 12" />
  <path d="M480 70V570" stroke="#1E293B" stroke-width="1.2" stroke-dasharray="8 12" />
  <path d="M770 70V570" stroke="#1E293B" stroke-width="1.2" stroke-dasharray="8 12" />

  <rect x="70" y="68" width="820" height="504" rx="30" fill="url(#card)" stroke="#334155" stroke-width="1.5" />

  <rect x="104" y="104" width="330" height="194" rx="22" fill="#0D1729" stroke="#334155" />
  <text x="130" y="142" fill="#67E8F9" font-size="15" font-family="Inter, Arial, sans-serif" letter-spacing="3">PLANT LANDSCAPE</text>
  <text x="130" y="182" fill="#E2E8F0" font-size="34" font-family="Inter, Arial, sans-serif" font-weight="700">Application</text>
  <text x="130" y="220" fill="#E2E8F0" font-size="34" font-family="Inter, Arial, sans-serif" font-weight="700">rationalization</text>
  <text x="130" y="256" fill="#94A3B8" font-size="17" font-family="Inter, Arial, sans-serif">Map the estate, expose redundancy, and</text>
  <text x="130" y="282" fill="#94A3B8" font-size="17" font-family="Inter, Arial, sans-serif">sequence retain, retire, rehost, or replace decisions.</text>

  <g>
    <rect x="504" y="104" width="322" height="168" rx="22" fill="#0C1324" stroke="#334155" />
    <text x="532" y="142" fill="#A5F3FC" font-size="15" font-family="Inter, Arial, sans-serif" letter-spacing="3">CONTROL TOWER</text>
    <rect x="532" y="178" width="122" height="36" rx="18" fill="#15233A" stroke="#475569" />
    <text x="568" y="201" fill="#E2E8F0" font-size="15" font-family="Inter, Arial, sans-serif">Cost</text>
    <rect x="670" y="178" width="122" height="36" rx="18" fill="#15233A" stroke="#475569" />
    <text x="708" y="201" fill="#E2E8F0" font-size="15" font-family="Inter, Arial, sans-serif">Risk</text>
    <rect x="532" y="228" width="122" height="36" rx="18" fill="#15233A" stroke="#475569" />
    <text x="561" y="251" fill="#E2E8F0" font-size="15" font-family="Inter, Arial, sans-serif">Cloud</text>
    <rect x="670" y="228" width="122" height="36" rx="18" fill="#15233A" stroke="#475569" />
    <text x="702" y="251" fill="#E2E8F0" font-size="15" font-family="Inter, Arial, sans-serif">ERP</text>
  </g>

  <g>
    <path d="M144 468H486" stroke="#38BDF8" stroke-width="2.2" stroke-linecap="round" />
    <path d="M152 468V340L240 300V468" fill="url(#factory)" stroke="#475569" stroke-width="1.5" />
    <path d="M240 468V356L328 320V468" fill="url(#factory)" stroke="#475569" stroke-width="1.5" />
    <path d="M328 468V332L436 286V468" fill="url(#factory)" stroke="#475569" stroke-width="1.5" />
    <rect x="182" y="254" width="34" height="88" rx="10" fill="#122036" stroke="#64748B" />
    <rect x="236" y="226" width="28" height="74" rx="10" fill="#122036" stroke="#64748B" />
    <rect x="292" y="248" width="34" height="72" rx="10" fill="#122036" stroke="#64748B" />
    <rect x="360" y="220" width="34" height="66" rx="10" fill="#122036" stroke="#64748B" />
    <rect x="171" y="362" width="28" height="22" rx="6" fill="#22D3EE" fill-opacity="0.24" />
    <rect x="206" y="362" width="28" height="22" rx="6" fill="#22D3EE" fill-opacity="0.24" />
    <rect x="260" y="382" width="28" height="22" rx="6" fill="#818CF8" fill-opacity="0.25" />
    <rect x="296" y="382" width="28" height="22" rx="6" fill="#818CF8" fill-opacity="0.25" />
    <rect x="350" y="352" width="28" height="22" rx="6" fill="#38BDF8" fill-opacity="0.25" />
    <rect x="386" y="352" width="28" height="22" rx="6" fill="#38BDF8" fill-opacity="0.25" />
  </g>

  <g>
    <path d="M460 406C520 406 548 370 592 322C630 280 668 262 740 262" stroke="url(#accent)" stroke-width="4" stroke-linecap="round" />
    <path d="M460 448C520 448 548 484 602 492C648 498 688 470 740 414" stroke="#22D3EE" stroke-width="3" stroke-linecap="round" stroke-dasharray="8 10" />
    <circle cx="460" cy="406" r="11" fill="#A5F3FC" stroke="#0F172A" stroke-width="4" />
    <circle cx="592" cy="322" r="14" fill="#818CF8" stroke="#0F172A" stroke-width="4" />
    <circle cx="740" cy="262" r="16" fill="#38BDF8" stroke="#0F172A" stroke-width="4" />
    <circle cx="602" cy="492" r="12" fill="#22D3EE" stroke="#0F172A" stroke-width="4" />
    <circle cx="740" cy="414" r="14" fill="#A78BFA" stroke="#0F172A" stroke-width="4" />
  </g>

  <g>
    <rect x="520" y="336" width="306" height="188" rx="24" fill="#08111F" stroke="#334155" />
    <text x="548" y="374" fill="#67E8F9" font-size="15" font-family="Inter, Arial, sans-serif" letter-spacing="3">DECISION FLOW</text>
    <path d="M552 428H794" stroke="#1E293B" stroke-width="12" stroke-linecap="round" />
    <path d="M552 428H632" stroke="#818CF8" stroke-width="12" stroke-linecap="round" />
    <path d="M552 456H794" stroke="#1E293B" stroke-width="12" stroke-linecap="round" />
    <path d="M552 456H706" stroke="#22D3EE" stroke-width="12" stroke-linecap="round" />
    <path d="M552 484H794" stroke="#1E293B" stroke-width="12" stroke-linecap="round" />
    <path d="M552 484H760" stroke="#38BDF8" stroke-width="12" stroke-linecap="round" />
    <text x="552" y="406" fill="#E2E8F0" font-size="16" font-family="Inter, Arial, sans-serif">Baseline the estate</text>
    <text x="552" y="434" fill="#94A3B8" font-size="13" font-family="Inter, Arial, sans-serif">Infrastructure, app inventory, criticality</text>
    <text x="552" y="462" fill="#E2E8F0" font-size="16" font-family="Inter, Arial, sans-serif">Expose redundancy</text>
    <text x="552" y="490" fill="#94A3B8" font-size="13" font-family="Inter, Arial, sans-serif">Capability overlap, support burden, risk</text>
    <text x="552" y="518" fill="#E2E8F0" font-size="16" font-family="Inter, Arial, sans-serif">Prioritize action</text>
    <text x="552" y="546" fill="#94A3B8" font-size="13" font-family="Inter, Arial, sans-serif">Retain, retire, rehost, or modernize</text>
  </g>
</svg>